<svg width="17" height="16" viewBox="0 0 17 16" fill="none" xmlns="http://www.w3.org/2000/svg">
<path d="M16.2401 15L12.3789 11.4563M12.3789 11.4563C12.9987 10.8876 13.4903 10.2123 13.8257 9.46918C14.1611 8.72604 14.3337 7.92955 14.3337 7.12518C14.3337 6.32081 14.1611 5.52431 13.8257 4.78117C13.4903 4.03803 12.9987 3.3628 12.3789 2.79402C11.7592 2.22525 11.0235 1.77407 10.2137 1.46625C9.40399 1.15843 8.53613 1 7.65968 1C6.78324 1 5.91537 1.15843 5.10564 1.46625C4.29591 1.77407 3.56017 2.22525 2.94043 2.79402C1.68881 3.94272 0.985657 5.50068 0.985657 7.12518C0.985657 8.74967 1.68881 10.3076 2.94043 11.4563C4.19206 12.605 5.88962 13.2504 7.65968 13.2504C9.42975 13.2504 11.1273 12.605 12.3789 11.4563Z" stroke="#A7A7A7" stroke-width="1.5" stroke-linecap="round" stroke-linejoin="round"/>
</svg>
