<svg width="163" height="36" viewBox="0 0 163 36" fill="none" xmlns="http://www.w3.org/2000/svg">
<path d="M95.9947 20.3534C96.1402 21.8287 96.383 22.9269 96.7226 23.6481C97.0616 24.3686 97.6693 24.7304 98.5438 24.7304C98.7079 24.7304 98.8551 24.7039 99.0012 24.6768C99.1485 24.7039 99.2939 24.7304 99.4574 24.7304C100.331 24.7304 100.937 24.3686 101.279 23.6481C101.617 22.9269 101.86 21.8287 102.005 20.3534L102.782 8.9648C102.927 6.74481 103 5.15111 103 4.18487C103 2.86866 102.648 1.84174 101.946 1.10587C101.241 0.369409 100.315 0 99.1671 0C99.107 0 99.0607 0.0135509 99.0024 0.0159075C98.9441 0.0135509 98.8972 0 98.8377 0C97.6885 0 96.7635 0.36882 96.0591 1.10587C95.3558 1.84233 95.0042 2.86925 95.0042 4.18546C95.0042 5.15228 95.0775 6.7454 95.2224 8.96539L95.9983 20.3534M99.0246 28.8893C97.9133 28.8893 96.9642 29.2352 96.1781 29.9227C95.3931 30.6144 95 31.4498 95 32.4314C95 33.5438 95.3973 34.414 96.1907 35.0467C96.9865 35.6807 97.9133 36 98.9705 36C100.049 36 100.988 35.6854 101.792 35.0603C102.595 34.434 102.994 33.5579 102.994 32.4308C102.994 31.4493 102.609 30.6138 101.842 29.9221C101.075 29.2352 100.135 28.8893 99.0222 28.8893" fill="#F96EE3" fill-opacity="0.4"/>
<path d="M147.91 34.8109C145.302 34.8109 143.013 34.3451 141.044 33.4137C139.074 32.5088 137.424 31.2712 136.093 29.701C134.789 28.1308 133.791 26.2945 133.099 24.192C132.434 22.0629 132.101 19.8007 132.101 17.4054C132.101 15.0102 132.367 12.7613 132.9 10.6588C133.432 8.55635 134.324 6.71999 135.574 5.14978C136.852 3.55295 138.542 2.3021 140.644 1.39723C142.773 0.465742 145.422 0 148.589 0C150.425 0 152.075 0.146376 153.539 0.439127C155.029 0.73188 156.333 1.18432 157.451 1.79643C158.276 2.24887 158.901 2.80776 159.327 3.4731C159.753 4.11184 160.006 4.8038 160.086 5.54898C160.166 6.29417 160.099 7.06597 159.886 7.86439C159.673 8.63619 159.341 9.36807 158.888 10.06C158.489 10.6721 158.01 11.2177 157.451 11.6968C156.919 12.1758 156.333 12.5484 155.694 12.8146C155.056 13.0807 154.377 13.2138 153.659 13.2138C152.94 13.1872 152.208 12.9875 151.463 12.615C151.117 12.4287 150.704 12.2823 150.225 12.1758C149.746 12.0428 149.201 11.9762 148.589 11.9762C147.63 11.9762 146.819 12.1226 146.153 12.4154C145.488 12.7081 144.942 13.1073 144.517 13.613C144.117 14.1186 143.811 14.7041 143.598 15.3695C143.412 16.0082 143.319 16.6869 143.319 17.4054C143.319 18.124 143.412 18.816 143.598 19.4813C143.785 20.1201 144.064 20.6922 144.437 21.1979C144.836 21.7036 145.328 22.1028 145.914 22.3955C146.526 22.6883 147.231 22.8347 148.03 22.8347C148.376 22.8347 148.735 22.808 149.108 22.7548C149.507 22.675 149.893 22.5818 150.265 22.4754C150.638 22.3423 150.984 22.2092 151.303 22.0762C151.649 21.9431 151.929 21.7967 152.142 21.637C152.621 21.3177 153.02 21.0116 153.339 20.7189C153.685 20.3995 154.004 20.0402 154.297 19.641C154.404 19.4813 154.444 19.3483 154.417 19.2418C154.39 19.1087 154.337 19.0156 154.257 18.9624C154.177 18.9091 154.071 18.8958 153.938 18.9224C153.831 18.9224 153.725 18.989 153.619 19.122C153.406 19.4414 153.113 19.7874 152.74 20.16C152.394 20.506 151.995 20.7588 151.543 20.9185C150.824 21.1846 150.159 21.3044 149.547 21.2778C148.935 21.2245 148.389 21.0648 147.91 20.7987C147.457 20.5326 147.098 20.1733 146.832 19.7208C146.593 19.2418 146.473 18.7095 146.473 18.124C146.473 17.1127 146.752 16.3542 147.311 15.8485C147.87 15.3163 148.722 14.9836 149.866 14.8505C151.303 14.6642 152.754 14.5711 154.217 14.5711C155.708 14.5711 157.158 14.7308 158.569 15.0501C159.207 15.2098 159.793 15.4759 160.325 15.8485C160.884 16.2211 161.363 16.6736 161.762 17.2058C162.162 17.7115 162.468 18.297 162.681 18.9624C162.894 19.6011 163 20.2797 163 20.9983C163 22.9145 162.667 24.7109 162.002 26.3876C161.363 28.0643 160.405 29.528 159.128 30.7789C157.877 32.0297 156.307 33.0144 154.417 33.733C152.554 34.4516 150.385 34.8109 147.91 34.8109Z" fill="#F2F4F6"/>
<path d="M114.885 17.2058C114.885 18.0841 114.858 19.0289 114.805 20.0402C114.778 21.0249 114.738 22.0229 114.685 23.0343C114.632 24.0456 114.565 25.0436 114.485 26.0283C114.406 27.013 114.326 27.9312 114.246 28.7828C114.166 29.528 114.006 30.22 113.767 30.8587C113.527 31.5241 113.181 32.0963 112.729 32.5753C112.303 33.0544 111.771 33.427 111.132 33.6931C110.52 33.9859 109.801 34.1322 108.976 34.1322C108.125 34.1322 107.38 33.9859 106.741 33.6931C106.129 33.427 105.596 33.0544 105.144 32.5753C104.718 32.0963 104.385 31.5241 104.146 30.8587C103.906 30.22 103.747 29.528 103.667 28.7828C103.268 24.9771 103.068 21.0648 103.068 17.0462C103.068 13.0275 103.268 9.11523 103.667 5.30946C103.747 4.56427 103.906 3.87231 104.146 3.23358C104.385 2.59485 104.718 2.03596 105.144 1.55691C105.596 1.07786 106.129 0.705267 106.741 0.439129C107.38 0.146376 108.125 0 108.976 0C109.934 0 110.746 0.17299 111.412 0.51897C112.104 0.86495 112.676 1.344 113.128 1.95612C114.033 3.12712 114.831 4.37797 115.523 5.70866C116.242 7.01274 116.934 8.35674 117.599 9.74066C118.265 11.098 118.917 12.4686 119.555 13.8525C120.221 15.2364 120.939 16.5671 121.711 17.8446C121.791 18.0043 121.884 18.1107 121.991 18.1639C122.124 18.2172 122.23 18.2172 122.31 18.1639C122.416 18.0841 122.483 17.9776 122.51 17.8446C122.563 17.7115 122.536 17.5518 122.43 17.3655C122.004 16.5139 121.618 15.7687 121.272 15.13C120.926 14.4646 120.54 13.746 120.114 12.9742C120.167 11.6435 120.234 10.3129 120.314 8.98217C120.394 7.62486 120.487 6.40062 120.593 5.30946C120.7 4.56427 120.873 3.87231 121.112 3.23358C121.378 2.59485 121.724 2.03596 122.15 1.55691C122.603 1.07786 123.135 0.705267 123.747 0.439129C124.359 0.146376 125.091 0 125.943 0C126.768 0 127.486 0.146376 128.098 0.439129C128.737 0.705267 129.269 1.07786 129.695 1.55691C130.148 2.03596 130.494 2.59485 130.733 3.23358C130.999 3.87231 131.186 4.56427 131.292 5.30946C131.665 9.11523 131.851 13.0275 131.851 17.0462C131.851 21.0648 131.665 24.9771 131.292 28.7828C131.186 29.528 130.999 30.22 130.733 30.8587C130.494 31.5241 130.148 32.0963 129.695 32.5753C129.269 33.0544 128.737 33.427 128.098 33.6931C127.486 33.9859 126.768 34.1322 125.943 34.1322C124.772 34.1322 123.814 33.8661 123.068 33.3338C122.35 32.8015 121.764 32.1229 121.312 31.2979C120.78 30.393 120.261 29.3417 119.755 28.1441C119.249 26.9465 118.73 25.709 118.198 24.4315C117.692 23.154 117.16 21.8899 116.601 20.639C116.042 19.3882 115.47 18.2438 114.885 17.2058Z" fill="#F2F4F6"/>
<path d="M79.1194 23.2379C79.0662 24.2226 78.9996 25.2073 78.9198 26.192C78.8399 27.1767 78.7601 28.1614 78.6803 29.1461C78.6004 29.8913 78.4407 30.5833 78.2012 31.222C77.9617 31.8874 77.6157 32.4596 77.1633 32.9386C76.7374 33.4176 76.2052 33.7902 75.5664 34.0564C74.9543 34.3491 74.2357 34.4955 73.4107 34.4955C72.5591 34.4955 71.8139 34.3491 71.1752 34.0564C70.563 33.7902 70.0308 33.4176 69.5783 32.9386C69.1525 32.4596 68.8198 31.8874 68.5803 31.222C68.3408 30.5833 68.1811 29.8913 68.1013 29.1461C67.702 25.3404 67.5024 21.468 67.5024 17.5292C67.5291 13.5904 67.7287 9.71804 68.1013 5.91226C68.2077 4.95416 68.4339 4.14244 68.7799 3.4771C69.1259 2.81175 69.565 2.26617 70.0973 1.84035C70.6296 1.41452 71.2284 1.09516 71.8937 0.882249C72.5857 0.642724 73.3176 0.469734 74.0894 0.363279C75.0208 0.256823 75.9656 0.176982 76.9237 0.123755C77.9085 0.0439128 78.8665 0.00399198 79.798 0.00399198C81.661 -0.0226215 83.4973 0.0838337 85.3071 0.323358C87.1434 0.562883 88.7802 1.08185 90.2174 1.88027C91.6811 2.67868 92.8521 3.84969 93.7304 5.39329C94.6352 6.93689 95.0877 8.99946 95.0877 11.581C95.0877 13.3907 94.8748 14.9343 94.4489 16.2118C94.0497 17.4893 93.4775 18.5671 92.7324 19.4454C92.0138 20.297 91.1488 20.989 90.1375 21.5213C89.1528 22.0269 88.0616 22.4128 86.864 22.679C85.693 22.9451 84.4421 23.1181 83.1115 23.1979C81.8074 23.2512 80.4767 23.2645 79.1194 23.2379ZM79.1194 12.4193C80.7694 13.271 82.5393 13.6037 84.4288 13.4174C84.6684 13.3907 84.828 13.2976 84.9079 13.1379C85.0143 12.9782 85.0676 12.8185 85.0676 12.6589C85.0676 12.4726 85.0143 12.3129 84.9079 12.1798C84.828 12.0467 84.7083 11.9802 84.5486 11.9802C83.5639 12.0334 82.6856 11.9802 81.9138 11.8205C81.142 11.6608 80.3303 11.3947 79.4787 11.0221C79.319 10.9423 79.1726 10.9556 79.0395 11.062C78.9065 11.1419 78.8 11.2616 78.7202 11.4213C78.6669 11.581 78.6669 11.7673 78.7202 11.9802C78.7734 12.1665 78.9065 12.3129 79.1194 12.4193Z" fill="#F2F4F6"/>
<path d="M55.1667 23.2379C55.1135 24.2226 55.047 25.2073 54.9671 26.192C54.8873 27.1767 54.8075 28.1614 54.7276 29.1461C54.6478 29.8913 54.4881 30.5833 54.2486 31.222C54.009 31.8874 53.6631 32.4596 53.2106 32.9386C52.7848 33.4176 52.2525 33.7902 51.6138 34.0564C51.0017 34.3491 50.2831 34.4955 49.4581 34.4955C48.6064 34.4955 47.8612 34.3491 47.2225 34.0564C46.6104 33.7902 46.0781 33.4176 45.6257 32.9386C45.1999 32.4596 44.8672 31.8874 44.6277 31.222C44.3881 30.5833 44.2285 29.8913 44.1486 29.1461C43.7494 25.3404 43.5498 21.468 43.5498 17.5292C43.5764 13.5904 43.776 9.71804 44.1486 5.91226C44.2551 4.95416 44.4813 4.14244 44.8273 3.4771C45.1732 2.81175 45.6124 2.26617 46.1447 1.84035C46.6769 1.41452 47.2757 1.09516 47.9411 0.882249C48.633 0.642724 49.3649 0.469734 50.1367 0.363279C51.0682 0.256823 52.013 0.176982 52.9711 0.123755C53.9558 0.0439128 54.9139 0.00399198 55.8454 0.00399198C57.7084 -0.0226215 59.5447 0.0838337 61.3545 0.323358C63.1908 0.562883 64.8276 1.08185 66.2647 1.88027C67.7285 2.67868 68.8995 3.84969 69.7777 5.39329C70.6826 6.93689 71.135 8.99946 71.135 11.581C71.135 13.3907 70.9221 14.9343 70.4963 16.2118C70.0971 17.4893 69.5249 18.5671 68.7797 19.4454C68.0611 20.297 67.1962 20.989 66.1849 21.5213C65.2002 22.0269 64.109 22.4128 62.9114 22.679C61.7404 22.9451 60.4895 23.1181 59.1588 23.1979C57.8547 23.2512 56.524 23.2645 55.1667 23.2379ZM55.1667 12.4193C56.8168 13.271 58.5866 13.6037 60.4762 13.4174C60.7157 13.3907 60.8754 13.2976 60.9552 13.1379C61.0617 12.9782 61.1149 12.8185 61.1149 12.6589C61.1149 12.4726 61.0617 12.3129 60.9552 12.1798C60.8754 12.0467 60.7556 11.9802 60.596 11.9802C59.6113 12.0334 58.733 11.9802 57.9612 11.8205C57.1894 11.6608 56.3777 11.3947 55.526 11.0221C55.3663 10.9423 55.22 10.9556 55.0869 11.062C54.9538 11.1419 54.8474 11.2616 54.7675 11.4213C54.7143 11.581 54.7143 11.7673 54.7675 11.9802C54.8208 12.1665 54.9538 12.3129 55.1667 12.4193Z" fill="#F2F4F6"/>
<path d="M11.6169 23.2379C11.5637 24.2226 11.4972 25.2073 11.4173 26.192C11.3375 27.1767 11.2576 28.1614 11.1778 29.1461C11.098 29.8913 10.9383 30.5833 10.6988 31.222C10.4592 31.8874 10.1133 32.4596 9.66082 32.9386C9.235 33.4176 8.70272 33.7902 8.06399 34.0564C7.45187 34.3491 6.7333 34.4955 5.90827 34.4955C5.05663 34.4955 4.31144 34.3491 3.67271 34.0564C3.06059 33.7902 2.52831 33.4176 2.07588 32.9386C1.65006 32.4596 1.31738 31.8874 1.07786 31.222C0.838335 30.5833 0.678653 29.8913 0.598811 29.1461C0.199604 25.3404 0 21.468 0 17.5292C0.0266138 13.5904 0.226217 9.71804 0.598811 5.91226C0.705266 4.95416 0.931484 4.14244 1.27746 3.4771C1.62344 2.81175 2.06257 2.26617 2.59485 1.84035C3.12712 1.41452 3.72594 1.09516 4.39128 0.882249C5.08324 0.642724 5.81512 0.469734 6.58692 0.363279C7.51841 0.256823 8.4632 0.176982 9.42129 0.123755C10.406 0.0439128 11.3641 0.00399198 12.2956 0.00399198C14.1586 -0.0226215 15.9949 0.0838337 17.8046 0.323358C19.641 0.562883 21.2778 1.08185 22.7149 1.88027C24.1787 2.67868 25.3497 3.84969 26.2279 5.39329C27.1328 6.93689 27.5852 8.99946 27.5852 11.581C27.5852 13.3907 27.3723 14.9343 26.9465 16.2118C26.5473 17.4893 25.9751 18.5671 25.2299 19.4454C24.5113 20.297 23.6464 20.989 22.6351 21.5213C21.6503 22.0269 20.5592 22.4128 19.3616 22.679C18.1905 22.9451 16.9397 23.1181 15.609 23.1979C14.3049 23.2512 12.9742 23.2645 11.6169 23.2379ZM11.6169 12.4193C13.267 13.271 15.0368 13.6037 16.9264 13.4174C17.1659 13.3907 17.3256 13.2976 17.4054 13.1379C17.5119 12.9782 17.5651 12.8185 17.5651 12.6589C17.5651 12.4726 17.5119 12.3129 17.4054 12.1798C17.3256 12.0467 17.2058 11.9802 17.0462 11.9802C16.0614 12.0334 15.1832 11.9802 14.4114 11.8205C13.6396 11.6608 12.8279 11.3947 11.9762 11.0221C11.8165 10.9423 11.6702 10.9556 11.5371 11.062C11.404 11.1419 11.2976 11.2616 11.2177 11.4213C11.1645 11.581 11.1645 11.7673 11.2177 11.9802C11.271 12.1665 11.404 12.3129 11.6169 12.4193Z" fill="#F2F4F6"/>
<path d="M33.1084 1C26.967 1 22 6.27025 22 12.7865C22 21.6264 33.1084 34.6757 33.1084 34.6757C33.1084 34.6757 44.2168 21.6264 44.2168 12.7865C44.2168 6.27025 39.2497 1 33.1084 1ZM33.1084 16.996C32.0562 16.996 31.0471 16.5525 30.3031 15.763C29.5591 14.9736 29.1411 13.9029 29.1411 12.7865C29.1411 11.6701 29.5591 10.5994 30.3031 9.80996C31.0471 9.02053 32.0562 8.57703 33.1084 8.57703C34.1606 8.57703 35.1697 9.02053 35.9137 9.80996C36.6577 10.5994 37.0757 11.6701 37.0757 12.7865C37.0757 13.9029 36.6577 14.9736 35.9137 15.763C35.1697 16.5525 34.1606 16.996 33.1084 16.996Z" fill="#F96EE3" fill-opacity="0.4"/>
</svg>
