<svg width="18" height="21" viewBox="0 0 18 21" fill="none" xmlns="http://www.w3.org/2000/svg">
<path d="M8.71572 0C9.98378 0 11.0108 0.9429 11.0108 2.1063L11.0003 2.27745C12.011 2.64705 12.988 3.26025 13.8543 4.07295C14.858 5.0106 15.4449 6.2538 15.6254 7.84875V13.6007L17.0122 15.8036C17.478 16.5029 17.627 17.0888 17.2637 17.5959C16.9307 18.059 16.3357 18.2206 15.5287 18.208H12.4197C12.0564 19.803 10.5171 21 8.67497 21C6.83053 21 5.29234 19.803 4.93021 18.2091H1.48819L1.42298 18.206C0.692892 18.1493 0.149109 17.8311 0.0268457 17.219C-0.0558279 16.8021 0.0536271 16.3548 0.338909 15.8214L1.76532 13.5324L1.76881 7.78575C1.89341 6.51525 2.42089 5.3319 3.33845 4.2462C4.11511 3.32745 5.2248 2.65125 6.42881 2.2617C6.42405 2.21001 6.42172 2.15817 6.42182 2.1063C6.42182 0.9429 7.44884 0 8.71572 0ZM10.8326 18.2091H6.51731C6.83752 19.0176 7.68172 19.5951 8.67497 19.5951C9.66705 19.5951 10.5124 19.0176 10.8326 18.2091ZM8.82867 3.2802C7.25205 3.2802 5.51824 3.95745 4.54711 5.1072C3.80421 5.985 3.38968 6.9153 3.29536 7.8477V13.7172C3.29536 13.8401 3.26043 13.9608 3.19406 14.0669L1.6908 16.4776C1.63254 16.5821 1.58574 16.6915 1.55107 16.8042H15.5404C15.6813 16.8063 15.7884 16.8011 15.8618 16.799C15.813 16.7034 15.7582 16.6105 15.6976 16.5207L14.199 14.1404C14.1316 14.0331 14.0963 13.9119 14.0965 13.7886L14.1 7.9233C13.9591 6.7032 13.5108 5.7561 12.7621 5.0547C11.5511 3.9207 10.1282 3.2802 8.82867 3.2802ZM8.71572 1.40385C8.54585 1.40491 8.38115 1.45669 8.24737 1.55111C8.11359 1.64553 8.01827 1.77726 7.97632 1.9257C8.26277 1.89315 8.54688 1.87635 8.82867 1.87635C9.03477 1.87635 9.24321 1.88685 9.45164 1.90995C9.4066 1.76495 9.31042 1.63712 9.17764 1.54581C9.04486 1.45449 8.88271 1.40466 8.71572 1.40385Z" fill="white"/>
</svg>
