<svg width="44" height="44" viewBox="0 0 44 44" fill="none" xmlns="http://www.w3.org/2000/svg">
<path d="M22 0L26.5147 9.59606L36.1413 5.14702L33.4315 15.4L43.6658 18.1797L34.9995 24.2922L41.0526 33L30.4848 32.1118L29.5244 42.6732L22 35.2L14.4756 42.6732L13.5152 32.1118L2.94744 33L9.00054 24.2922L0.334229 18.1797L10.5685 15.4L7.85867 5.14702L17.4853 9.59606L22 0Z" fill="#F96EE3"/>
<path d="M24.44 29.28H21.78V20.38C21.78 20.0867 21.78 19.7867 21.78 19.48C21.7933 19.1733 21.8 18.8667 21.8 18.56C21.8133 18.24 21.8267 17.9467 21.84 17.68C21.7067 17.8133 21.5533 17.9733 21.38 18.16C21.22 18.3467 21.04 18.5267 20.84 18.7L19.36 19.98L18 18.42L22.16 15H24.44V29.28Z" fill="white"/>
</svg>
